<?xml version="1.0" encoding="UTF-8"?>
<svg id="Layer_1" xmlns="http://www.w3.org/2000/svg" version="1.1" xmlns:xlink="http://www.w3.org/1999/xlink" viewBox="0 0 1734.92 453.07">
  <!-- Generator: Adobe Illustrator 30.0.0, SVG Export Plug-In . SVG Version: 2.1.1 Build 123)  -->
  <defs>
    <style>
      .st0 {
        fill: #fff;
      }

      .st1 {
        fill: none;
      }

      .st2 {
        clip-path: url(#clippath-1);
      }

      .st3 {
        clip-path: url(#clippath);
      }
    </style>
    <clipPath id="clippath">
      <rect class="st1" width="1734.92" height="453.07"/>
    </clipPath>
    <clipPath id="clippath-1">
      <rect class="st1" x="0" y="18" width="1734.92" height="453.07"/>
    </clipPath>
  </defs>
  <g id="Artwork_1">
    <g class="st3">
      <g class="st2">
        <g>
          <path class="st0" d="M247.7,207.46c-3.84,2.19-4.44,5.01-4.09,8.68.11,1.19.12,2.41,0,3.6-.22,2.13.76,2.76,2.85,2.8,6.39.12,12.71,1.01,18.99,2.09,24.54,4.23,46.58,13.76,65.73,29.36,1.5,1.22,3.11,2.04,5.08,1.1,1.84-.87,1.71-2.59,1.71-4.18.02-7.7-.07-33.71.04-39.01.43-20.82-6.26-39.36-19.13-55.82-18.29-23.38-42.37-37.12-72.58-40.46-2.11-.23-2.73.26-2.72,2.29.07,13,.09,26.01.02,39.01-.01,1.96.75,3.07,2.41,4.09,4.51,2.76,6.85,6.84,6.9,12.03.07,8,.1,16.01-.01,24.01-.06,4.19-1.5,8.28-5.19,10.39"/>
          <path class="st0" d="M332.43,277.49c-.92-.76-2.29-2.16-3.11-3.02-9.35-9.73-20.37-17.31-32.58-23.18-16.64-8.01-34.35-11.97-52.92-13.09-2.87-.17-15.78-.17-18.65,0-18.56,1.12-36.27,5.08-52.92,13.09-12.2,5.87-23.23,13.45-32.58,23.18-.83.86-2.19,2.26-3.11,3.02-4.69,3.89-7.12,8.54-5.71,13.26.2,33.75,13.96,59.21,39.94,78.56,9.87,7.35,20.66,12.4,32.17,15.61,9.87,2.76,20.13,3.92,30.38,3.92h2.31c10.25,0,20.51-1.16,30.38-3.92,11.51-3.22,22.3-8.27,32.17-15.61,25.98-19.35,39.74-44.81,39.94-78.56,1.41-4.72-1.02-9.37-5.71-13.26"/>
          <path class="st0" d="M131.04,250.93c0,1.59-.13,3.3,1.71,4.18,1.97.94,3.58.11,5.08-1.1,19.15-15.61,41.19-25.13,65.73-29.36,6.28-1.08,12.6-1.97,18.99-2.09,2.09-.04,3.07-.67,2.85-2.8-.12-1.19-.11-2.41,0-3.6.35-3.67-.26-6.49-4.09-8.68-3.69-2.11-5.13-6.21-5.19-10.39-.12-8-.08-16-.01-24.01.04-5.19,2.38-9.27,6.9-12.03,1.66-1.02,2.42-2.12,2.41-4.09-.07-13-.05-26.01.02-39.01.01-2.03-.61-2.52-2.72-2.29-30.21,3.33-54.29,17.08-72.58,40.46-12.87,16.45-19.56,35-19.13,55.82.11,5.3.02,31.31.04,39.01"/>
        </g>
        <g>
          <path class="st0" d="M435.29,169.87h79.88v23.5h-27.02v140.97h-25.85v-140.97h-27.02v-23.5Z"/>
          <path class="st0" d="M552.3,334.34h-25.85v-164.47h25.85v70.49h29.37v-70.49h26.31v164.47h-26.31v-70.49h-29.37v70.49Z"/>
          <path class="st0" d="M652.62,239.18h35.48v23.5h-35.48v48.17h44.64v23.5h-70.49v-164.47h70.49v23.5h-44.64v45.82Z"/>
          <path class="st0" d="M804.4,286.64l17.62-116.77h35.95v164.47h-24.44v-117.95l-17.86,117.95h-24.44l-19.27-116.3v116.3h-22.56v-164.47h35.95l19.03,116.77Z"/>
          <path class="st0" d="M874.65,209.34c0-26.31,13.86-41.35,39.24-41.35s39.24,15.04,39.24,41.35v85.52c0,26.32-13.86,41.35-39.24,41.35s-39.24-15.04-39.24-41.35v-85.52ZM900.5,296.51c0,11.75,5.17,16.21,13.39,16.21s13.39-4.46,13.39-16.21v-88.81c0-11.75-5.17-16.21-13.39-16.21s-13.39,4.46-13.39,16.21v88.81Z"/>
          <path class="st0" d="M994.48,169.87v126.88c0,11.75,5.17,15.98,13.39,15.98s13.39-4.23,13.39-15.98v-126.88h24.44v125.23c0,26.31-13.16,41.35-38.53,41.35s-38.53-15.04-38.53-41.35v-125.23h25.85Z"/>
          <path class="st0" d="M1098.09,167.99c25.14,0,38.06,15.04,38.06,41.35v5.17h-24.44v-6.81c0-11.75-4.7-16.21-12.92-16.21s-12.92,4.46-12.92,16.21c0,33.83,50.51,40.18,50.51,87.17,0,26.32-13.16,41.35-38.53,41.35s-38.53-15.04-38.53-41.35v-10.1h24.44v11.75c0,11.75,5.17,15.98,13.39,15.98s13.39-4.23,13.39-15.98c0-33.83-50.52-40.18-50.52-87.17,0-26.31,12.92-41.35,38.06-41.35Z"/>
          <path class="st0" d="M1177.04,239.18h35.48v23.5h-35.48v48.17h44.64v23.5h-70.49v-164.47h70.49v23.5h-44.64v45.82Z"/>
          <path class="st0" d="M1299.92,334.34h-25.84v-164.47h25.84v70.49h29.37v-70.49h26.32v164.47h-26.32v-70.49h-29.37v70.49Z"/>
          <path class="st0" d="M1372.29,209.34c0-26.31,13.86-41.35,39.24-41.35s39.24,15.04,39.24,41.35v85.52c0,26.32-13.86,41.35-39.24,41.35s-39.24-15.04-39.24-41.35v-85.52ZM1398.13,296.51c0,11.75,5.17,16.21,13.39,16.21s13.39-4.46,13.39-16.21v-88.81c0-11.75-5.17-16.21-13.39-16.21s-13.39,4.46-13.39,16.21v88.81Z"/>
          <path class="st0" d="M1492.11,169.87v126.88c0,11.75,5.17,15.98,13.39,15.98s13.39-4.23,13.39-15.98v-126.88h24.44v125.23c0,26.31-13.16,41.35-38.53,41.35s-38.53-15.04-38.53-41.35v-125.23h25.85Z"/>
          <path class="st0" d="M1595.73,167.99c25.14,0,38.06,15.04,38.06,41.35v5.17h-24.44v-6.81c0-11.75-4.7-16.21-12.92-16.21s-12.92,4.46-12.92,16.21c0,33.83,50.51,40.18,50.51,87.17,0,26.32-13.16,41.35-38.53,41.35s-38.53-15.04-38.53-41.35v-10.1h24.44v11.75c0,11.75,5.17,15.98,13.39,15.98s13.39-4.23,13.39-15.98c0-33.83-50.52-40.18-50.52-87.17,0-26.31,12.92-41.35,38.06-41.35Z"/>
          <path class="st0" d="M1674.67,239.18h35.48v23.5h-35.48v48.17h44.64v23.5h-70.49v-164.47h70.49v23.5h-44.64v45.82Z"/>
        </g>
      </g>
    </g>
  </g>
</svg>