<?xml version="1.0" encoding="UTF-8"?>
<svg id="Layer_1" xmlns="http://www.w3.org/2000/svg" version="1.1" xmlns:xlink="http://www.w3.org/1999/xlink" viewBox="0 0 1734.92 453.07">
  <!-- Generator: Adobe Illustrator 30.0.0, SVG Export Plug-In . SVG Version: 2.1.1 Build 123)  -->
  <defs>
    <style>
      .st0, .st1 {
        fill: #fff;
      }

      .st2 {
        fill: none;
      }

      .st3 {
        clip-path: url(#clippath-1);
      }

      .st1 {
        font-family: BebasNeueBold, 'Bebas Neue';
        font-size: 234.96px;
      }

      .st4 {
        clip-path: url(#clippath);
      }
    </style>
    <clipPath id="clippath">
      <rect class="st2" width="1734.92" height="453.07"/>
    </clipPath>
    <clipPath id="clippath-1">
      <rect class="st2" width="1734.92" height="453.07"/>
    </clipPath>
  </defs>
  <g id="Artwork_1">
    <g class="st4">
      <g class="st3">
        <path class="st0" d="M247.7,189.46c-3.84,2.19-4.44,5.01-4.09,8.68.11,1.19.12,2.41,0,3.6-.22,2.13.76,2.76,2.85,2.8,6.39.12,12.71,1.01,18.99,2.09,24.54,4.23,46.58,13.76,65.73,29.36,1.5,1.22,3.11,2.04,5.08,1.1,1.84-.87,1.71-2.59,1.71-4.18.02-7.7-.07-33.71.04-39.01.43-20.82-6.26-39.36-19.13-55.82-18.29-23.38-42.37-37.12-72.58-40.46-2.11-.23-2.73.26-2.72,2.29.07,13,.09,26.01.02,39.01-.01,1.96.75,3.07,2.41,4.09,4.51,2.76,6.85,6.84,6.9,12.03.07,8,.1,16.01-.01,24.01-.06,4.19-1.5,8.28-5.19,10.39"/>
        <path class="st0" d="M332.43,259.49c-.92-.76-2.29-2.16-3.11-3.02-9.35-9.73-20.37-17.31-32.58-23.18-16.64-8.01-34.35-11.97-52.92-13.09-2.87-.17-15.78-.17-18.65,0-18.56,1.12-36.27,5.08-52.92,13.09-12.2,5.87-23.23,13.45-32.58,23.18-.83.86-2.19,2.26-3.11,3.02-4.69,3.89-7.12,8.54-5.71,13.26.2,33.75,13.96,59.21,39.94,78.56,9.87,7.35,20.66,12.4,32.17,15.61,9.87,2.76,20.13,3.92,30.38,3.92h2.31c10.25,0,20.51-1.16,30.38-3.92,11.51-3.22,22.3-8.27,32.17-15.61,25.98-19.35,39.74-44.81,39.94-78.56,1.41-4.72-1.02-9.37-5.71-13.26"/>
        <path class="st0" d="M131.04,232.93c0,1.59-.13,3.3,1.71,4.18,1.97.94,3.58.11,5.08-1.1,19.15-15.61,41.19-25.13,65.73-29.36,6.28-1.08,12.6-1.97,18.99-2.09,2.09-.04,3.07-.67,2.85-2.8-.12-1.19-.11-2.41,0-3.6.35-3.67-.26-6.49-4.09-8.68-3.69-2.11-5.13-6.21-5.19-10.39-.12-8-.08-16-.01-24.01.04-5.19,2.38-9.27,6.9-12.03,1.66-1.02,2.42-2.12,2.41-4.09-.07-13-.05-26.01.02-39.01.01-2.03-.61-2.52-2.72-2.29-30.21,3.33-54.29,17.08-72.58,40.46-12.87,16.45-19.56,35-19.13,55.82.11,5.3.02,31.31.04,39.01"/>
        <text class="st1" transform="translate(442.41 285.48)"><tspan x="0" y="0">the mouse house</tspan></text>
      </g>
      <g>
        <path class="st0" d="M442.97,370.66l20.32-43.77h1.25l20.32,43.77h-1.44l-19.82-42.77h.63l-19.82,42.77h-1.44ZM449.66,357.47l.62-1.19h27.2l.63,1.19h-28.45Z"/>
        <path class="st0" d="M520.07,370.85c-3.17,0-6.16-.58-8.97-1.75-2.81-1.17-4.95-2.65-6.41-4.44l.88-.81c1.38,1.62,3.37,3,5.97,4.13,2.6,1.13,5.43,1.69,8.47,1.69s5.76-.44,7.78-1.31c2.02-.88,3.52-2.05,4.5-3.53.98-1.48,1.47-3.12,1.47-4.91,0-2.08-.5-3.76-1.5-5.03-1-1.27-2.33-2.27-4-3-1.67-.73-3.48-1.33-5.44-1.81-1.96-.48-3.93-.97-5.91-1.47-1.98-.5-3.8-1.16-5.47-1.97-1.67-.81-3-1.93-4-3.34-1-1.42-1.5-3.27-1.5-5.57,0-1.92.51-3.71,1.53-5.38,1.02-1.67,2.6-3.02,4.75-4.06,2.15-1.04,4.93-1.56,8.35-1.56,2.33,0,4.64.37,6.91,1.09,2.27.73,4.2,1.7,5.78,2.91l-.69,1c-1.75-1.29-3.69-2.25-5.82-2.88s-4.17-.94-6.13-.94c-3.04,0-5.56.45-7.57,1.34-2,.9-3.48,2.08-4.44,3.56-.96,1.48-1.44,3.14-1.44,4.97,0,2.13.5,3.83,1.5,5.1s2.33,2.27,4,3c1.67.73,3.49,1.33,5.47,1.81,1.98.48,3.95.98,5.91,1.5,1.96.52,3.77,1.19,5.44,2,1.67.81,3,1.91,4,3.28s1.5,3.19,1.5,5.44c0,1.92-.52,3.71-1.56,5.38-1.04,1.67-2.67,3.01-4.88,4.03-2.21,1.02-5.04,1.53-8.5,1.53Z"/>
        <path class="st0" d="M563.46,370.85c-5.21,0-9.33-1.54-12.35-4.63-3.02-3.08-4.53-7.71-4.53-13.88v-25.45h1.25v25.39c0,5.84,1.36,10.19,4.1,13.07,2.73,2.88,6.58,4.31,11.54,4.31s8.81-1.44,11.54-4.31c2.73-2.88,4.1-7.23,4.1-13.07v-25.39h1.25v25.45c0,6.17-1.51,10.8-4.53,13.88-3.02,3.08-7.14,4.63-12.35,4.63Z"/>
        <path class="st0" d="M596.6,370.66v-43.77h16.57c4.63,0,8.67.95,12.13,2.84,3.46,1.9,6.15,4.49,8.07,7.79,1.92,3.29,2.88,7.04,2.88,11.25s-.96,7.96-2.88,11.26c-1.92,3.29-4.61,5.89-8.07,7.78-3.46,1.9-7.5,2.85-12.13,2.85h-16.57ZM597.85,369.47h15.19c4.46,0,8.34-.9,11.63-2.69,3.29-1.79,5.84-4.24,7.63-7.35,1.79-3.1,2.69-6.66,2.69-10.66s-.9-7.55-2.69-10.66c-1.79-3.1-4.34-5.55-7.63-7.35-3.29-1.79-7.17-2.69-11.63-2.69h-15.19v41.39Z"/>
        <path class="st0" d="M666.07,370.85c-3.21,0-6.18-.55-8.91-1.66-2.73-1.1-5.11-2.66-7.13-4.66-2.02-2-3.6-4.33-4.72-7s-1.69-5.59-1.69-8.75.56-6.08,1.69-8.75c1.13-2.67,2.7-5,4.72-7,2.02-2,4.4-3.55,7.13-4.66,2.73-1.1,5.7-1.66,8.91-1.66s6.18.55,8.91,1.66c2.73,1.1,5.11,2.66,7.13,4.66,2.02,2,3.6,4.34,4.72,7,1.13,2.67,1.69,5.59,1.69,8.75s-.56,6.09-1.69,8.75-2.7,5-4.72,7c-2.02,2-4.4,3.55-7.13,4.66-2.73,1.11-5.7,1.66-8.91,1.66ZM666.07,369.66c3,0,5.79-.52,8.38-1.56,2.58-1.04,4.83-2.51,6.75-4.41,1.92-1.9,3.41-4.1,4.47-6.63,1.06-2.52,1.59-5.28,1.59-8.29s-.53-5.76-1.59-8.28-2.55-4.73-4.47-6.63c-1.92-1.9-4.17-3.37-6.75-4.41-2.59-1.04-5.38-1.56-8.38-1.56s-5.79.52-8.38,1.56c-2.59,1.04-4.84,2.51-6.75,4.41-1.92,1.9-3.41,4.11-4.47,6.63s-1.59,5.28-1.59,8.28.53,5.76,1.59,8.29c1.06,2.52,2.55,4.73,4.47,6.63,1.92,1.9,4.17,3.37,6.75,4.41,2.58,1.04,5.38,1.56,8.38,1.56Z"/>
        <path class="st0" d="M700.53,370.66v-43.77h28.2v1.19h-26.95v42.58h-1.25ZM701.46,350.28v-1.19h24.45v1.19h-24.45Z"/>
        <path class="st0" d="M739.86,370.66v-43.77h1.25v43.77h-1.25Z"/>
        <path class="st0" d="M749.8,370.66l17.45-23.14v1l-16.19-21.63h1.56l15.26,20.45h-.38l15.26-20.45h1.5l-16.01,21.38v-.5l17.26,22.89h-1.56l-16.51-21.95h.38l-16.51,21.95h-1.5Z"/>
        <path class="st0" d="M828.83,370.85c-3.21,0-6.18-.55-8.91-1.66-2.73-1.1-5.11-2.66-7.13-4.66-2.02-2-3.6-4.33-4.72-7s-1.69-5.59-1.69-8.75.56-6.08,1.69-8.75c1.13-2.67,2.7-5,4.72-7,2.02-2,4.4-3.55,7.13-4.66,2.73-1.1,5.7-1.66,8.91-1.66,2.88,0,5.61.46,8.19,1.38,2.58.92,4.81,2.31,6.69,4.19l-.75.88c-2-1.92-4.19-3.27-6.57-4.06-2.38-.79-4.9-1.19-7.57-1.19-3,0-5.79.53-8.38,1.59-2.59,1.06-4.84,2.54-6.75,4.44-1.92,1.9-3.41,4.11-4.47,6.63s-1.59,5.26-1.59,8.22.53,5.7,1.59,8.22c1.06,2.52,2.55,4.73,4.47,6.63,1.92,1.9,4.17,3.38,6.75,4.44,2.58,1.06,5.38,1.59,8.38,1.59,2.67,0,5.19-.41,7.57-1.22,2.38-.81,4.56-2.18,6.57-4.1l.75.88c-1.88,1.88-4.11,3.28-6.69,4.22-2.58.94-5.31,1.41-8.19,1.41Z"/>
        <path class="st0" d="M870.54,370.85c-3.21,0-6.18-.55-8.91-1.66-2.73-1.1-5.11-2.66-7.13-4.66-2.02-2-3.6-4.33-4.72-7s-1.69-5.59-1.69-8.75.56-6.08,1.69-8.75c1.13-2.67,2.7-5,4.72-7,2.02-2,4.4-3.55,7.13-4.66,2.73-1.1,5.7-1.66,8.91-1.66s6.18.55,8.91,1.66,5.11,2.66,7.13,4.66c2.02,2,3.59,4.34,4.72,7,1.12,2.67,1.69,5.59,1.69,8.75s-.56,6.09-1.69,8.75c-1.13,2.67-2.7,5-4.72,7-2.02,2-4.4,3.55-7.13,4.66-2.73,1.11-5.7,1.66-8.91,1.66ZM870.54,369.66c3,0,5.79-.52,8.38-1.56,2.58-1.04,4.83-2.51,6.75-4.41,1.92-1.9,3.41-4.1,4.47-6.63,1.06-2.52,1.59-5.28,1.59-8.29s-.53-5.76-1.59-8.28c-1.06-2.52-2.55-4.73-4.47-6.63-1.92-1.9-4.17-3.37-6.75-4.41-2.58-1.04-5.38-1.56-8.38-1.56s-5.79.52-8.38,1.56c-2.59,1.04-4.84,2.51-6.75,4.41-1.92,1.9-3.41,4.11-4.47,6.63s-1.59,5.28-1.59,8.28.53,5.76,1.59,8.29c1.06,2.52,2.55,4.73,4.47,6.63,1.92,1.9,4.17,3.37,6.75,4.41,2.58,1.04,5.38,1.56,8.38,1.56Z"/>
        <path class="st0" d="M904.99,370.66v-43.77h1.06l20.82,36.39h-.56l20.76-36.39h1.06v43.77h-1.25v-41.96h.5l-20.45,35.77h-.75l-20.51-35.77h.56v41.96h-1.25Z"/>
        <path class="st0" d="M964.77,370.66v-43.77h14.82c3.58,0,6.66.57,9.22,1.72s4.53,2.78,5.91,4.91,2.06,4.71,2.06,7.75-.69,5.58-2.06,7.72c-1.38,2.15-3.35,3.79-5.91,4.94s-5.64,1.72-9.22,1.72h-14.13l.56-.56v15.57h-1.25ZM966.02,354.97l-.56-.5h14.26c5.13,0,9.04-1.16,11.76-3.47,2.71-2.31,4.06-5.55,4.06-9.72s-1.35-7.46-4.06-9.75c-2.71-2.29-6.63-3.44-11.76-3.44h-14.26l.56-.5v27.39Z"/>
        <path class="st0" d="M998.66,370.66l20.32-43.77h1.25l20.32,43.77h-1.44l-19.82-42.77h.62l-19.82,42.77h-1.44ZM1005.35,357.47l.63-1.19h27.2l.62,1.19h-28.45Z"/>
        <path class="st0" d="M1049.43,370.66v-43.77h1.06l32.77,42.33h-.69v-42.33h1.25v43.77h-1.06l-32.77-42.33h.69v42.33h-1.25Z"/>
        <path class="st0" d="M1109.71,370.66v-15.32l.31.94-18.13-29.39h1.44l17.26,27.95h-.5l17.26-27.95h1.44l-18.13,29.39.31-.94v15.32h-1.25Z"/>
      </g>
    </g>
  </g>
</svg>